<?xml version="1.0" encoding="UTF-8"?>
<svg id="Layer_1" data-name="Layer 1" xmlns="http://www.w3.org/2000/svg" viewBox="0 0 18.5326 19.3207">
  <defs>
    <style>
      .cls-1 {
        fill: #fff;
        stroke: #fff;
        stroke-linejoin: round;
        stroke-width: .5px;
      }
    </style>
  </defs>
  <path class="cls-1" d="m17.8016,2.9728h-3.4182c.0104-.049.0296-.0947.0296-.1467V.9756c0-.4008-.3249-.7256-.7256-.7256H4.7147c-.4007,0-.7255.3248-.7255.7256v1.8505c0,.0521.0192.0978.0296.1467H.731c-.2656,0-.481.2153-.481.481v.1957c0,.2656.2153.481.481.481h17.0707c.2656,0,.481-.2153.481-.481v-.1957c0-.2656-.2153-.481-.481-.481Zm-4.0995-.3067H4.8305V.8991h8.8716v1.767ZM.25,5.0815l2.3234,13.9892h13.7112l1.998-13.9892H.25Zm6.0725,12.712h-2.3333V5.9294h2.3333v11.8641Zm4.2731,0h-2.3334V5.9294h2.3334v11.8641Zm4.2731,0h-2.3334V5.9294h2.3334v11.8641Z"/>
</svg>